<svg width="480" height="480" viewBox="0 0 480 480" fill="none" xmlns="http://www.w3.org/2000/svg">
<rect width="480" height="480" rx="110" fill="#201A1C"/>
<mask id="path-2-outside-1_5_34" maskUnits="userSpaceOnUse" x="33.7849" y="95.1348" width="418" height="288" fill="black">
<rect fill="white" x="33.7849" y="95.1348" width="418" height="288"/>
<path d="M154.469 133.385C189.38 133.385 214.595 139.538 227.525 145.054L220.733 210.189C200.367 204.028 176.124 201.441 153.171 201.441C135.066 201.441 125.05 203.709 125.05 208.569C125.05 213.757 130.544 216.351 163.194 219.592C219.762 225.099 238.193 239.034 238.193 281.806C238.193 340.133 197.788 358.602 142.183 358.602C105.01 358.602 79.4774 352.448 58.7849 343.046L60.4011 245.179C86.5872 261.708 120.201 268.509 153.171 268.509C168.043 268.509 174.181 265.914 174.181 260.727C174.181 255.22 170.304 254.246 138.625 251.333C73.976 245.188 62.0174 225.745 62.0173 195.28C62.0173 157.688 87.8768 133.385 154.469 133.385ZM287.197 119.135C315.644 119.135 325.015 135.656 325.015 164.501C325.015 176.489 323.725 197.879 322.427 218.941C334.068 195.931 351.201 181.996 378.677 181.996C406.152 181.996 417.467 200.145 417.467 224.121C417.467 239.03 412.944 249.398 412.944 257.499C412.944 262.359 414.887 265.281 420.053 265.281C421.996 265.281 424.258 264.634 427.164 263.979V346.291C421.025 351.798 408.095 356.013 384.815 356.013C363.159 356.013 345.699 348.885 345.699 315.507C345.699 302.873 347.315 286.989 347.315 263.979C347.315 252.638 345.054 247.777 338.59 247.777C331.798 247.777 325.66 252.311 320.811 263.333V263.66L331.799 264.953V353.418H242.906V262.04C258.097 262.04 260.04 261.713 260.04 243.571V233.851C260.04 202.093 257.133 182.004 246.465 182.004C245.493 182.004 244.53 182.331 243.232 182.65L242.588 127.236C252.93 122.703 268.121 119.135 287.197 119.135Z"/>
</mask>
<path d="M154.469 133.385C189.38 133.385 214.595 139.538 227.525 145.054L220.733 210.189C200.367 204.028 176.124 201.441 153.171 201.441C135.066 201.441 125.05 203.709 125.05 208.569C125.05 213.757 130.544 216.351 163.194 219.592C219.762 225.099 238.193 239.034 238.193 281.806C238.193 340.133 197.788 358.602 142.183 358.602C105.01 358.602 79.4774 352.448 58.7849 343.046L60.4011 245.179C86.5872 261.708 120.201 268.509 153.171 268.509C168.043 268.509 174.181 265.914 174.181 260.727C174.181 255.22 170.304 254.246 138.625 251.333C73.976 245.188 62.0174 225.745 62.0173 195.28C62.0173 157.688 87.8768 133.385 154.469 133.385ZM287.197 119.135C315.644 119.135 325.015 135.656 325.015 164.501C325.015 176.489 323.725 197.879 322.427 218.941C334.068 195.931 351.201 181.996 378.677 181.996C406.152 181.996 417.467 200.145 417.467 224.121C417.467 239.03 412.944 249.398 412.944 257.499C412.944 262.359 414.887 265.281 420.053 265.281C421.996 265.281 424.258 264.634 427.164 263.979V346.291C421.025 351.798 408.095 356.013 384.815 356.013C363.159 356.013 345.699 348.885 345.699 315.507C345.699 302.873 347.315 286.989 347.315 263.979C347.315 252.638 345.054 247.777 338.59 247.777C331.798 247.777 325.66 252.311 320.811 263.333V263.66L331.799 264.953V353.418H242.906V262.04C258.097 262.04 260.04 261.713 260.04 243.571V233.851C260.04 202.093 257.133 182.004 246.465 182.004C245.493 182.004 244.53 182.331 243.232 182.65L242.588 127.236C252.93 122.703 268.121 119.135 287.197 119.135Z" fill="black"/>
<path d="M154.469 133.385L154.469 109.635H154.469V133.385ZM227.525 145.054L251.147 147.517L252.965 130.085L236.843 123.208L227.525 145.054ZM220.733 210.189L213.856 232.922L241.373 241.247L244.355 212.653L220.733 210.189ZM153.171 201.441L153.171 177.691H153.171V201.441ZM125.05 208.569H101.3L101.3 208.57L125.05 208.569ZM163.194 219.592L160.849 243.226L160.871 243.228L160.893 243.23L163.194 219.592ZM238.193 281.806H261.943V281.806H238.193ZM142.183 358.602V382.352H142.183L142.183 358.602ZM58.7849 343.046L35.0381 342.654L34.781 358.226L48.9602 364.669L58.7849 343.046ZM60.4011 245.179L73.0784 225.095L37.352 202.544L36.6544 244.787L60.4011 245.179ZM153.171 268.509V292.259H153.171L153.171 268.509ZM174.181 260.727H197.931V260.726L174.181 260.727ZM138.625 251.333L136.377 274.976L136.414 274.98L136.45 274.983L138.625 251.333ZM62.0173 195.28H38.2673V195.28L62.0173 195.28ZM287.197 119.135L287.197 95.3848H287.197V119.135ZM325.015 164.501L348.765 164.501V164.501H325.015ZM322.427 218.941L298.722 217.481L343.62 229.662L322.427 218.941ZM378.677 181.996V158.246L378.676 158.246L378.677 181.996ZM417.467 224.121L441.217 224.121V224.121H417.467ZM412.944 257.499H389.194V257.499L412.944 257.499ZM420.053 265.281L420.053 289.031H420.053V265.281ZM427.164 263.979H450.914V234.284L421.944 240.81L427.164 263.979ZM427.164 346.291L443.024 363.969L450.914 356.891V346.291H427.164ZM384.815 356.013V379.763V379.763V356.013ZM345.699 315.507L321.949 315.507V315.507H345.699ZM347.315 263.979H371.065V263.979L347.315 263.979ZM338.59 247.777V224.027V224.027V247.777ZM320.811 263.333L299.072 253.77L297.061 258.34V263.333H320.811ZM320.811 263.66H297.061V284.779L318.036 287.247L320.811 263.66ZM331.799 264.953H355.549V243.834L334.574 241.366L331.799 264.953ZM331.799 353.418V377.168H355.549V353.418H331.799ZM242.906 353.418H219.156V377.168H242.906V353.418ZM242.906 262.04V238.29H219.156V262.04H242.906ZM246.465 182.004V158.254L246.463 158.254L246.465 182.004ZM243.232 182.65L219.484 182.927L219.832 212.862L248.903 205.713L243.232 182.65ZM242.588 127.236L233.053 105.484L218.656 111.795L218.839 127.513L242.588 127.236ZM154.469 133.385L154.468 157.135C186.933 157.135 208.847 162.907 218.207 166.899L227.525 145.054L236.843 123.208C220.344 116.17 191.827 109.635 154.469 109.635L154.469 133.385ZM227.525 145.054L203.903 142.591L197.111 207.726L220.733 210.189L244.355 212.653L251.147 147.517L227.525 145.054ZM220.733 210.189L227.611 187.457C204.338 180.416 177.622 177.691 153.171 177.691L153.171 201.441L153.171 225.191C174.627 225.191 196.397 227.64 213.856 232.922L220.733 210.189ZM153.171 201.441V177.691C143.613 177.691 134.262 178.244 126.64 180.122C122.962 181.028 117.696 182.701 112.852 186.253C107.396 190.255 101.3 197.74 101.3 208.569H125.05H148.8C148.8 212.265 147.789 215.836 146.001 218.884C144.313 221.763 142.301 223.561 140.943 224.557C138.543 226.317 136.913 226.511 138.002 226.243C139.914 225.772 144.624 225.191 153.171 225.191V201.441ZM125.05 208.569L101.3 208.57C101.3 214.88 103.313 222.518 109.64 228.834C114.715 233.9 120.787 236.23 124.804 237.483C132.931 240.019 144.848 241.638 160.849 243.226L163.194 219.592L165.54 195.958C157.567 195.167 151.565 194.445 147.046 193.754C142.389 193.043 140.002 192.466 138.952 192.139C137.514 191.69 140.172 192.196 143.197 195.215C144.959 196.974 146.556 199.297 147.602 202.099C148.607 204.793 148.8 207.12 148.8 208.568L125.05 208.569ZM163.194 219.592L160.893 243.23C188.963 245.963 201.213 250.498 206.902 255.134C210.524 258.087 214.443 263.5 214.443 281.806H238.193H261.943C261.943 257.34 256.646 234.399 236.911 218.315C219.243 203.914 193.993 198.728 165.495 195.954L163.194 219.592ZM238.193 281.806H214.443C214.443 304.779 206.946 315.967 197.442 322.604C186.295 330.389 168.151 334.852 142.183 334.852L142.183 358.602L142.183 382.352C171.82 382.352 201.681 377.58 224.638 361.548C249.237 344.37 261.943 317.16 261.943 281.806H238.193ZM142.183 358.602V334.852C107.844 334.852 85.7477 329.21 68.6096 321.423L58.7849 343.046L48.9602 364.669C73.2072 375.686 102.177 382.352 142.183 382.352V358.602ZM58.7849 343.046L82.5317 343.438L84.1479 245.571L60.4011 245.179L36.6544 244.787L35.0381 342.654L58.7849 343.046ZM60.4011 245.179L47.7239 265.262C78.9192 284.954 117.408 292.259 153.171 292.259V268.509V244.759C122.995 244.759 94.2552 238.463 73.0784 225.095L60.4011 245.179ZM153.171 268.509L153.171 292.259C161.195 292.259 170.09 291.669 177.732 288.748C181.811 287.189 187.017 284.415 191.261 279.305C195.874 273.749 197.931 267.137 197.931 260.727H174.181H150.431C150.431 256.911 151.721 252.567 154.719 248.958C157.348 245.793 160.089 244.64 160.774 244.378C161.498 244.102 161.393 244.26 159.861 244.446C158.424 244.621 156.259 244.759 153.171 244.759L153.171 268.509ZM174.181 260.727L197.931 260.726C197.931 256.547 197.17 248.279 190.367 241.059C184.782 235.131 177.866 233.019 174.321 232.088C167.016 230.167 155.723 229.055 140.8 227.683L138.625 251.333L136.45 274.983C144.366 275.711 150.238 276.291 154.673 276.831C159.303 277.395 161.422 277.811 162.244 278.027C163.629 278.391 159.662 277.737 155.794 273.632C153.552 271.252 152.038 268.462 151.206 265.69C150.462 263.211 150.431 261.297 150.431 260.727L174.181 260.727ZM138.625 251.333L140.872 227.69C109.579 224.715 96.7224 218.817 91.4848 214.352C88.1011 211.468 85.7674 207.479 85.7673 195.28L62.0173 195.28L38.2673 195.28C38.2674 213.546 41.913 234.511 60.6707 250.501C77.5746 264.91 103.022 271.806 136.377 274.976L138.625 251.333ZM62.0173 195.28H85.7673C85.7673 182.558 89.7347 174.911 97.2565 169.431C106.171 162.936 123.361 157.135 154.469 157.135V133.385V109.635C118.985 109.635 89.9492 115.985 69.2855 131.04C47.2297 147.109 38.2673 170.411 38.2673 195.28H62.0173ZM287.197 119.135L287.197 142.885C296.686 142.885 297.887 145.401 297.888 145.402C298.995 146.854 301.265 151.711 301.265 164.501H325.015H348.765C348.765 148.446 346.35 130.62 335.66 116.601C323.863 101.13 306.155 95.3848 287.197 95.3848L287.197 119.135ZM325.015 164.501L301.265 164.501C301.265 175.57 300.043 196.05 298.722 217.481L322.427 218.941L346.133 220.402C347.408 199.708 348.765 177.407 348.765 164.501L325.015 164.501ZM322.427 218.941L343.62 229.662C348.235 220.539 353.128 214.837 358.146 211.357C362.907 208.057 369.214 205.746 378.677 205.746L378.677 181.996L378.676 158.246C360.663 158.246 344.666 162.903 331.081 172.323C317.754 181.563 308.26 194.333 301.235 208.221L322.427 218.941ZM378.677 181.996V205.746C386.801 205.746 389.209 208.165 390.111 209.25C391.626 211.072 393.717 215.45 393.717 224.121H417.467H441.217C441.217 208.816 437.65 192.132 426.639 178.886C415.014 164.902 398.028 158.246 378.677 158.246V181.996ZM417.467 224.121L393.717 224.121C393.717 229.146 392.972 233.597 391.947 238.554C391.172 242.304 389.194 250.306 389.194 257.499H412.944H436.694C436.694 257.546 436.698 256.979 437.022 255.19C437.377 253.226 437.783 251.462 438.463 248.172C439.7 242.193 441.217 234.006 441.217 224.121L417.467 224.121ZM412.944 257.499L389.194 257.499C389.194 262.43 390.068 271.03 396.427 278.549C403.469 286.876 412.983 289.031 420.053 289.031L420.053 265.281L420.054 241.531C421.957 241.531 427.917 242.226 432.696 247.877C436.792 252.72 436.694 257.429 436.694 257.499L412.944 257.499ZM420.053 265.281V289.031C425.479 289.031 431.929 287.251 432.383 287.149L427.164 263.979L421.944 240.81C421.084 241.004 420.238 241.205 419.676 241.337C419.036 241.487 418.677 241.568 418.412 241.623C418.157 241.676 418.202 241.66 418.43 241.629C418.664 241.598 419.24 241.531 420.053 241.531V265.281ZM427.164 263.979H403.414V346.291H427.164H450.914V263.979H427.164ZM427.164 346.291L411.304 328.613C412.035 327.957 411.227 329.024 406.612 330.188C402.139 331.315 395.145 332.263 384.815 332.263V356.013V379.763C409.313 379.763 430.004 375.65 443.024 363.969L427.164 346.291ZM384.815 356.013V332.263C375.712 332.263 372.982 330.571 372.433 330.108C372.321 330.014 371.728 329.544 371.051 327.707C370.297 325.658 369.449 321.885 369.449 315.507H345.699H321.949C321.949 336.067 327.4 354.288 341.84 366.445C355.435 377.891 372.262 379.763 384.815 379.763V356.013ZM345.699 315.507L369.449 315.507C369.449 309.924 369.807 303.592 370.23 294.772C370.64 286.213 371.065 276.049 371.065 263.979H347.315H323.565C323.565 274.92 323.182 284.203 322.784 292.497C322.399 300.529 321.949 308.456 321.949 315.507L345.699 315.507ZM347.315 263.979L371.065 263.979C371.065 257.906 370.672 248.767 366.434 240.642C363.973 235.923 360.087 231.268 354.357 228.032C348.792 224.891 343.151 224.027 338.59 224.027V247.777V271.527C337.26 271.527 334.326 271.271 331.004 269.396C327.516 267.426 325.407 264.695 324.319 262.609C323.384 260.817 323.302 259.717 323.383 260.247C323.451 260.695 323.565 261.832 323.565 263.98L347.315 263.979ZM338.59 247.777V224.027C318.256 224.027 305.714 238.67 299.072 253.77L320.811 263.333L342.551 272.896C343.272 271.256 343.863 270.269 344.225 269.745C344.582 269.227 344.63 269.287 344.247 269.608C343.833 269.955 343.052 270.493 341.906 270.919C340.747 271.35 339.591 271.527 338.59 271.527V247.777ZM320.811 263.333H297.061V263.66H320.811H344.561V263.333H320.811ZM320.811 263.66L318.036 287.247L329.023 288.54L331.799 264.953L334.574 241.366L323.587 240.073L320.811 263.66ZM331.799 264.953H308.049V353.418H331.799H355.549V264.953H331.799ZM331.799 353.418V329.668H242.906V353.418V377.168H331.799V353.418ZM242.906 353.418H266.656V262.04H242.906H219.156V353.418H242.906ZM242.906 262.04V285.79C246.23 285.79 250.949 285.814 255.181 285.24C259.628 284.638 267.314 282.955 273.838 276.526C280.262 270.197 282.183 262.587 282.941 257.92C283.7 253.253 283.79 248.114 283.79 243.571H260.04H236.29C236.29 245.668 236.261 247.237 236.203 248.448C236.145 249.686 236.07 250.217 236.056 250.301C235.976 250.797 236.462 246.67 240.501 242.691C242.501 240.72 244.617 239.547 246.275 238.892C247.777 238.298 248.796 238.171 248.803 238.171C248.821 238.168 248.431 238.218 247.304 238.251C246.194 238.284 244.831 238.29 242.906 238.29V262.04ZM260.04 243.571H283.79V233.851H260.04H236.29V243.571H260.04ZM260.04 233.851H283.79C283.79 217.842 283.112 202.538 280.403 190.714C279.074 184.912 276.78 177.689 272.132 171.45C266.799 164.291 258.053 158.254 246.465 158.254V182.004V205.754C240.21 205.754 235.829 202.228 234.041 199.828C232.938 198.348 233.372 198.132 234.103 201.322C235.514 207.482 236.29 218.102 236.29 233.851H260.04ZM246.465 182.004L246.463 158.254C243.356 158.254 240.86 158.78 239.601 159.072C238.967 159.22 238.389 159.372 238.121 159.442C237.767 159.535 237.667 159.561 237.561 159.587L243.232 182.65L248.903 205.713C249.446 205.58 249.953 205.446 250.176 205.387C250.483 205.306 250.451 205.317 250.34 205.343C250.131 205.391 248.602 205.754 246.466 205.754L246.465 182.004ZM243.232 182.65L266.981 182.374L266.336 126.96L242.588 127.236L218.839 127.513L219.484 182.927L243.232 182.65ZM242.588 127.236L252.122 148.988C259.062 145.946 270.941 142.885 287.197 142.885V119.135V95.3848C265.301 95.3848 246.798 99.4596 233.053 105.484L242.588 127.236Z" fill="white" mask="url(#path-2-outside-1_5_34)"/>
</svg>
